<?xml version="1.0" encoding="UTF-8" standalone="no"?><svg xmlns="http://www.w3.org/2000/svg" xmlns:xlink="http://www.w3.org/1999/xlink" contentScriptType="application/ecmascript" contentStyleType="text/css" height="904px" preserveAspectRatio="none" style="width:938px;height:904px;" version="1.1" viewBox="0 0 938 904" width="938px" zoomAndPan="magnify"><defs><filter height="300%" id="f1gj7w4bfaqyhh" width="300%" x="-1" y="-1"><feGaussianBlur result="blurOut" stdDeviation="2.0"/><feColorMatrix in="blurOut" result="blurOut2" type="matrix" values="0 0 0 0 0 0 0 0 0 0 0 0 0 0 0 0 0 0 .4 0"/><feOffset dx="4.0" dy="4.0" in="blurOut2" result="blurOut3"/><feBlend in="SourceGraphic" in2="blurOut3" mode="normal"/></filter></defs><g><!--MD5=[119fae30ee92eb1c1df6be1121264e30]
cluster edaphobaseOriginal--><rect fill="#FFFFFF" filter="url(#f1gj7w4bfaqyhh)" height="97" style="stroke:#000000;stroke-width:1.5;" width="199" x="275" y="7"/><text fill="#000000" font-family="sans-serif" font-size="14" font-weight="bold" lengthAdjust="spacing" textLength="96" x="326.5" y="21.9951">Edaphobase</text><!--MD5=[04206538a4d77ecf416feab63a4b9a9d]
cluster Bonares--><rect fill="#FFFFFF" filter="url(#f1gj7w4bfaqyhh)" height="114" style="stroke:#000000;stroke-width:1.5;" width="211" x="669" y="520"/><text fill="#000000" font-family="sans-serif" font-size="14" font-weight="bold" lengthAdjust="spacing" textLength="65" x="742" y="534.9951">Bonares</text><!--MD5=[ddc0480475f2b5b30e075976ae33ab6d]
cluster e!DAL--><rect fill="#FFFFFF" filter="url(#f1gj7w4bfaqyhh)" height="114" style="stroke:#000000;stroke-width:1.5;" width="241" x="685" y="357"/><text fill="#000000" font-family="sans-serif" font-size="14" font-weight="bold" lengthAdjust="spacing" textLength="47" x="782" y="371.9951">e!DAL</text><!--MD5=[4e1a3510868d06a507f098bb08f0dae0]
cluster Middleware--><rect fill="#FFFFFF" filter="url(#f1gj7w4bfaqyhh)" height="620" style="stroke:#000000;stroke-width:1.5;" width="494" x="151" y="153"/><text fill="#000000" font-family="sans-serif" font-size="14" font-weight="bold" lengthAdjust="spacing" textLength="91" x="352.5" y="167.9951">Middleware</text><!--MD5=[c8a92163ea49f473132b066eec77c436]
cluster edaphobaseDumped--><rect fill="#FFFFFF" filter="url(#f1gj7w4bfaqyhh)" height="97" style="stroke:#000000;stroke-width:1.0;stroke-dasharray:7.0,7.0;" width="199" x="217" y="196"/><text fill="#000000" font-family="sans-serif" font-size="14" font-weight="bold" lengthAdjust="spacing" textLength="149" x="242" y="210.9951">Edaphobase Mirror</text><!--MD5=[4e8b2058326a39019cc379f4d997d251]
entity edaphobaseOriginalDb--><path d="M291.5,52.5 C291.5,42.5 312,42.5 312,42.5 C312,42.5 332.5,42.5 332.5,52.5 L332.5,77.7969 C332.5,87.7969 312,87.7969 312,87.7969 C312,87.7969 291.5,87.7969 291.5,77.7969 L291.5,52.5 " fill="#FEFECE" filter="url(#f1gj7w4bfaqyhh)" style="stroke:#000000;stroke-width:1.5;"/><path d="M291.5,52.5 C291.5,62.5 312,62.5 312,62.5 C312,62.5 332.5,62.5 332.5,52.5 " fill="none" style="stroke:#000000;stroke-width:1.5;"/><text fill="#000000" font-family="sans-serif" font-size="14" lengthAdjust="spacing" textLength="21" x="301.5" y="79.4951">DB</text><!--MD5=[89bb2b5211b98ee335672052b2249054]
entity sql2arcOriginal--><polygon fill="#87CEFA" filter="url(#f1gj7w4bfaqyhh)" points="368,52,378,42,458,42,458,78.2969,448,88.2969,368,88.2969,368,52" style="stroke:#00008B;stroke-width:1.5;"/><line style="stroke:#00008B;stroke-width:1.5;" x1="448" x2="458" y1="52" y2="42"/><line style="stroke:#00008B;stroke-width:1.5;" x1="368" x2="448" y1="52" y2="52"/><line style="stroke:#00008B;stroke-width:1.5;" x1="448" x2="448" y1="52" y2="88.2969"/><text fill="#000000" font-family="sans-serif" font-size="14" lengthAdjust="spacing" textLength="50" x="383" y="74.9951">sql2arc</text><!--MD5=[5940a2943f8f2b23a16771c6ebc7a00d]
entity bonaresDb--><path d="M822.5,574 C822.5,564 843,564 843,564 C843,564 863.5,564 863.5,574 L863.5,599.2969 C863.5,609.2969 843,609.2969 843,609.2969 C843,609.2969 822.5,609.2969 822.5,599.2969 L822.5,574 " fill="#FEFECE" filter="url(#f1gj7w4bfaqyhh)" style="stroke:#000000;stroke-width:1.5;"/><path d="M822.5,574 C822.5,584 843,584 843,584 C843,584 863.5,584 863.5,574 " fill="none" style="stroke:#000000;stroke-width:1.5;"/><text fill="#000000" font-family="sans-serif" font-size="14" lengthAdjust="spacing" textLength="21" x="832.5" y="600.9951">DB</text><!--MD5=[7269e432894b029eadde334615502a7d]
entity inspire--><polygon fill="#FFFFFF" filter="url(#f1gj7w4bfaqyhh)" points="685,565,695,555,787,555,787,607.5938,777,617.5938,685,617.5938,685,565" style="stroke:#808080;stroke-width:1.5;"/><line style="stroke:#808080;stroke-width:1.5;" x1="777" x2="787" y1="565" y2="555"/><line style="stroke:#808080;stroke-width:1.5;" x1="685" x2="777" y1="565" y2="565"/><line style="stroke:#808080;stroke-width:1.5;" x1="777" x2="777" y1="565" y2="617.5938"/><text fill="#000000" font-family="sans-serif" font-size="14" lengthAdjust="spacing" textLength="53" x="700" y="587.9951">INSPIRE</text><text fill="#000000" font-family="sans-serif" font-size="14" lengthAdjust="spacing" textLength="62" x="700" y="604.292">endpoint</text><!--MD5=[4941198d65a35863b2f29ae822f20165]
entity edaldDb--><path d="M868.5,411 C868.5,401 889,401 889,401 C889,401 909.5,401 909.5,411 L909.5,436.2969 C909.5,446.2969 889,446.2969 889,446.2969 C889,446.2969 868.5,446.2969 868.5,436.2969 L868.5,411 " fill="#FEFECE" filter="url(#f1gj7w4bfaqyhh)" style="stroke:#000000;stroke-width:1.5;"/><path d="M868.5,411 C868.5,421 889,421 889,421 C889,421 909.5,421 909.5,411 " fill="none" style="stroke:#000000;stroke-width:1.5;"/><text fill="#000000" font-family="sans-serif" font-size="14" lengthAdjust="spacing" textLength="21" x="878.5" y="437.9951">DB</text><!--MD5=[08af8945a84acfe1eabc0963aa87c412]
entity web--><polygon fill="#FFFFFF" filter="url(#f1gj7w4bfaqyhh)" points="701,402,711,392,833,392,833,444.5938,823,454.5938,701,454.5938,701,402" style="stroke:#808080;stroke-width:1.5;"/><line style="stroke:#808080;stroke-width:1.5;" x1="823" x2="833" y1="402" y2="392"/><line style="stroke:#808080;stroke-width:1.5;" x1="701" x2="823" y1="402" y2="402"/><line style="stroke:#808080;stroke-width:1.5;" x1="823" x2="823" y1="402" y2="454.5938"/><text fill="#000000" font-family="sans-serif" font-size="14" lengthAdjust="spacing" textLength="92" x="716" y="424.9951">Web site with</text><text fill="#000000" font-family="sans-serif" font-size="14" lengthAdjust="spacing" textLength="82" x="716" y="441.292">schema.org</text><!--MD5=[979bcc919fe3deace2fbebc05cbbcf30]
entity rabbitmq--><path d="M172.5,410.5 L249.5,410.5 C254.5,410.5 254.5,423.6484 254.5,423.6484 C254.5,423.6484 254.5,436.7969 249.5,436.7969 L172.5,436.7969 C167.5,436.7969 167.5,423.6484 167.5,423.6484 C167.5,423.6484 167.5,410.5 172.5,410.5 " fill="#FEFECE" filter="url(#f1gj7w4bfaqyhh)" style="stroke:#A80036;stroke-width:1.5;"/><path d="M249.5,410.5 C244.5,410.5 244.5,423.6484 244.5,423.6484 C244.5,436.7969 249.5,436.7969 249.5,436.7969 " fill="none" style="stroke:#A80036;stroke-width:1.5;"/><text fill="#000000" font-family="sans-serif" font-size="14" lengthAdjust="spacing" textLength="67" x="172.5" y="428.4951">RabbitMQ</text><!--MD5=[e2307af040e3f87d22824e7603ca28ec]
entity api--><polygon fill="#87CEFA" filter="url(#f1gj7w4bfaqyhh)" points="367.5,410.5,377.5,400.5,428.5,400.5,428.5,436.7969,418.5,446.7969,367.5,446.7969,367.5,410.5" style="stroke:#00008B;stroke-width:1.5;"/><line style="stroke:#00008B;stroke-width:1.5;" x1="418.5" x2="428.5" y1="410.5" y2="400.5"/><line style="stroke:#00008B;stroke-width:1.5;" x1="367.5" x2="418.5" y1="410.5" y2="410.5"/><line style="stroke:#00008B;stroke-width:1.5;" x1="418.5" x2="418.5" y1="410.5" y2="446.7969"/><text fill="#000000" font-family="sans-serif" font-size="14" lengthAdjust="spacing" textLength="21" x="382.5" y="433.4951">API</text><!--MD5=[04d59acfe39b3d394c5c71f4eb6873b2]
entity couchdb--><path d="M296,722 C296,712 339,712 339,712 C339,712 382,712 382,722 L382,747.2969 C382,757.2969 339,757.2969 339,757.2969 C339,757.2969 296,757.2969 296,747.2969 L296,722 " fill="#FEFECE" filter="url(#f1gj7w4bfaqyhh)" style="stroke:#000000;stroke-width:1.5;"/><path d="M296,722 C296,732 339,732 339,732 C339,732 382,732 382,722 " fill="none" style="stroke:#000000;stroke-width:1.5;"/><text fill="#000000" font-family="sans-serif" font-size="14" lengthAdjust="spacing" textLength="66" x="306" y="748.9951">CouchDB</text><!--MD5=[d37e7b6e4e01e9dcb388f1477493d265]
entity worker--><polygon fill="#87CEFA" filter="url(#f1gj7w4bfaqyhh)" points="169,565,179,555,293,555,293,607.5938,283,617.5938,169,617.5938,169,565" style="stroke:#00008B;stroke-width:1.5;"/><line style="stroke:#00008B;stroke-width:1.5;" x1="283" x2="293" y1="565" y2="555"/><line style="stroke:#00008B;stroke-width:1.5;" x1="169" x2="283" y1="565" y2="565"/><line style="stroke:#00008B;stroke-width:1.5;" x1="283" x2="283" y1="565" y2="617.5938"/><text fill="#000000" font-family="sans-serif" font-size="14" lengthAdjust="spacing" textLength="84" x="184" y="587.9951">Background</text><text fill="#000000" font-family="sans-serif" font-size="14" lengthAdjust="spacing" textLength="49" x="184" y="604.292">Worker</text><!--MD5=[28ed191a4a935f7472cdb88f9774917b]
entity datahub--><path d="M175,722 C175,712 216,712 216,712 C216,712 257,712 257,722 L257,747.2969 C257,757.2969 216,757.2969 216,757.2969 C216,757.2969 175,757.2969 175,747.2969 L175,722 " fill="#FEFECE" filter="url(#f1gj7w4bfaqyhh)" style="stroke:#000000;stroke-width:1.5;"/><path d="M175,722 C175,732 216,732 216,732 C216,732 257,732 257,722 " fill="none" style="stroke:#000000;stroke-width:1.5;"/><text fill="#000000" font-family="sans-serif" font-size="14" lengthAdjust="spacing" textLength="62" x="185" y="748.9951">DataHUB</text><!--MD5=[45425557172a266f4b0adf0dba44e702]
entity harvester--><polygon fill="#87CEFA" filter="url(#f1gj7w4bfaqyhh)" points="523,410.5,533,400.5,629,400.5,629,436.7969,619,446.7969,523,446.7969,523,410.5" style="stroke:#00008B;stroke-width:1.5;"/><line style="stroke:#00008B;stroke-width:1.5;" x1="619" x2="629" y1="410.5" y2="400.5"/><line style="stroke:#00008B;stroke-width:1.5;" x1="523" x2="619" y1="410.5" y2="410.5"/><line style="stroke:#00008B;stroke-width:1.5;" x1="619" x2="619" y1="410.5" y2="446.7969"/><text fill="#000000" font-family="sans-serif" font-size="14" lengthAdjust="spacing" textLength="66" x="538" y="433.4951">Harvester</text><!--MD5=[4a0ba4c4459ed2829e7e86859df9f832]
entity edaphobaseDumpedDb--><path d="M233.5,241.5 C233.5,231.5 254,231.5 254,231.5 C254,231.5 274.5,231.5 274.5,241.5 L274.5,266.7969 C274.5,276.7969 254,276.7969 254,276.7969 C254,276.7969 233.5,276.7969 233.5,266.7969 L233.5,241.5 " fill="#FEFECE" filter="url(#f1gj7w4bfaqyhh)" style="stroke:#000000;stroke-width:1.5;"/><path d="M233.5,241.5 C233.5,251.5 254,251.5 254,251.5 C254,251.5 274.5,251.5 274.5,241.5 " fill="none" style="stroke:#000000;stroke-width:1.5;"/><text fill="#000000" font-family="sans-serif" font-size="14" lengthAdjust="spacing" textLength="21" x="243.5" y="268.4951">DB</text><!--MD5=[426de88d0340aceb986a1f00e5c450b8]
entity sql2arcDumped--><polygon fill="#87CEFA" filter="url(#f1gj7w4bfaqyhh)" points="310,241,320,231,400,231,400,267.2969,390,277.2969,310,277.2969,310,241" style="stroke:#00008B;stroke-width:1.5;"/><line style="stroke:#00008B;stroke-width:1.5;" x1="390" x2="400" y1="241" y2="231"/><line style="stroke:#00008B;stroke-width:1.5;" x1="310" x2="390" y1="241" y2="241"/><line style="stroke:#00008B;stroke-width:1.5;" x1="390" x2="390" y1="241" y2="277.2969"/><text fill="#000000" font-family="sans-serif" font-size="14" lengthAdjust="spacing" textLength="50" x="325" y="263.9951">sql2arc</text><!--MD5=[8eb8f6295461e3ca7f72d0a2c15ea200]
entity searchhub--><polygon fill="#FFFFFF" filter="url(#f1gj7w4bfaqyhh)" points="16,573.5,26,563.5,134,563.5,134,599.7969,124,609.7969,16,609.7969,16,573.5" style="stroke:#808080;stroke-width:1.5;"/><line style="stroke:#808080;stroke-width:1.5;" x1="124" x2="134" y1="573.5" y2="563.5"/><line style="stroke:#808080;stroke-width:1.5;" x1="16" x2="124" y1="573.5" y2="573.5"/><line style="stroke:#808080;stroke-width:1.5;" x1="124" x2="124" y1="573.5" y2="609.7969"/><text fill="#000000" font-family="sans-serif" font-size="14" lengthAdjust="spacing" textLength="78" x="31" y="596.4951">SearchHUB</text><!--MD5=[63aff138fffefdf445ed15b707c1e601]
entity sciwin--><polygon fill="#FFFFFF" filter="url(#f1gj7w4bfaqyhh)" points="173.5,861,183.5,851,258.5,851,258.5,887.2969,248.5,897.2969,173.5,897.2969,173.5,861" style="stroke:#808080;stroke-width:1.5;"/><line style="stroke:#808080;stroke-width:1.5;" x1="248.5" x2="258.5" y1="861" y2="851"/><line style="stroke:#808080;stroke-width:1.5;" x1="173.5" x2="248.5" y1="861" y2="861"/><line style="stroke:#808080;stroke-width:1.5;" x1="248.5" x2="248.5" y1="861" y2="897.2969"/><text fill="#000000" font-family="sans-serif" font-size="14" lengthAdjust="spacing" textLength="45" x="188.5" y="883.9951">SciWIn</text><!--MD5=[46418d6ee8f950bf03b26b9b2e5b4a5e]
link api to couchdb--><path d="M393.76,446.72 C383.16,502.2 355.59,646.62 344.12,706.69 " fill="none" id="api-to-couchdb" style="stroke:#A80036;stroke-width:1.0;"/><polygon fill="#A80036" points="343.13,711.89,348.7542,703.8049,344.0721,706.9796,340.8975,702.2975,343.13,711.89" style="stroke:#A80036;stroke-width:1.0;"/><text fill="#000000" font-family="sans-serif" font-size="13" lengthAdjust="spacing" textLength="32" x="381" y="591.0669">JSON</text><!--MD5=[7e7a45820a80f71707845b901f54c001]
link api to rabbitmq--><path d="M367.28,423.5 C338.23,423.5 294.15,423.5 260.2,423.5 " fill="none" id="api-to-rabbitmq" style="stroke:#A80036;stroke-width:1.0;"/><polygon fill="#A80036" points="254.84,423.5,263.84,427.5,259.84,423.5,263.84,419.5,254.84,423.5" style="stroke:#A80036;stroke-width:1.0;"/><text fill="#000000" font-family="sans-serif" font-size="13" lengthAdjust="spacing" textLength="76" x="273" y="416.5669">publish task</text><!--MD5=[2278deec8973fd0ce3aabc4051a3425d]
link rabbitmq to worker--><path d="M212.5,436.6 C215.45,460.3 222.07,513.65 226.54,549.62 " fill="none" id="rabbitmq-to-worker" style="stroke:#A80036;stroke-width:1.0;"/><polygon fill="#A80036" points="227.19,554.8,230.0561,545.3774,226.5768,549.8377,222.1165,546.3585,227.19,554.8" style="stroke:#A80036;stroke-width:1.0;"/><text fill="#000000" font-family="sans-serif" font-size="13" lengthAdjust="spacing" textLength="90" x="221" y="500.0669">consume task</text><!--MD5=[4244460b195f71c28707d0598b203968]
link worker to couchdb--><path d="M257.57,618.15 C265.93,628.13 275.05,639.38 283,650 C296.96,668.65 311.58,690.55 322.38,707.24 " fill="none" id="worker-to-couchdb" style="stroke:#A80036;stroke-width:1.0;"/><polygon fill="#A80036" points="325.32,711.8,323.7945,702.07,322.6061,707.6006,317.0755,706.4122,325.32,711.8" style="stroke:#A80036;stroke-width:1.0;"/><text fill="#000000" font-family="sans-serif" font-size="13" lengthAdjust="spacing" textLength="32" x="306" y="670.5669">JSON</text><!--MD5=[cd74379f74ababcc13afd3336ee9a0c7]
link worker to datahub--><path d="M227.86,618.11 C225.16,644.34 221.32,681.74 218.75,706.78 " fill="none" id="worker-to-datahub" style="stroke:#A80036;stroke-width:1.0;"/><polygon fill="#A80036" points="218.22,711.93,223.1006,703.3755,218.7203,706.9551,215.1407,702.5749,218.22,711.93" style="stroke:#A80036;stroke-width:1.0;"/><text fill="#000000" font-family="sans-serif" font-size="13" lengthAdjust="spacing" textLength="49" x="225" y="670.5669">git sync</text><!--MD5=[fd70ea859dcbfba6230f51285009db6e]
reverse link edaphobaseOriginalDb to sql2arcOriginal--><path d="M337.74,65 C347.74,65 357.73,65 367.73,65 " fill="none" id="edaphobaseOriginalDb-backto-sql2arcOriginal" style="stroke:#A80036;stroke-width:1.0;"/><polygon fill="#A80036" points="332.52,65,341.52,69,337.52,65,341.52,61,332.52,65" style="stroke:#A80036;stroke-width:1.0;"/><!--MD5=[e9298d50368e474c044515c1f7c4d008]
link sql2arcOriginal to api--><path d="M420.89,88.14 C436.57,135.38 468.11,249.22 444,341 C438.79,360.82 427.55,380.9 417.48,396.16 " fill="none" id="sql2arcOriginal-to-api" style="stroke:#A80036;stroke-width:1.0;"/><polygon fill="#A80036" points="414.68,400.34,423.013,395.0901,417.4634,396.1863,416.3672,390.6367,414.68,400.34" style="stroke:#A80036;stroke-width:1.0;"/><text fill="#000000" font-family="sans-serif" font-size="13" lengthAdjust="spacing" textLength="58" x="453" y="251.0669">RO-Crate</text><text fill="#000000" font-family="sans-serif" font-size="13" lengthAdjust="spacing" textLength="54" x="455" y="266.1997">JSON-LD</text><!--MD5=[cd31767e1f370b11492492d41881309c]
reverse link edaphobaseDumpedDb to sql2arcDumped--><path d="M279.74,254 C289.74,254 299.73,254 309.73,254 " fill="none" id="edaphobaseDumpedDb-backto-sql2arcDumped" style="stroke:#A80036;stroke-width:1.0;"/><polygon fill="#A80036" points="274.52,254,283.52,258,279.52,254,283.52,250,274.52,254" style="stroke:#A80036;stroke-width:1.0;"/><!--MD5=[3a269120700645bb622fbe9ca0b452e0]
link sql2arcDumped to api--><path d="M360.71,277.24 C368.54,307.74 382.59,362.48 391.03,395.35 " fill="none" id="sql2arcDumped-to-api" style="stroke:#A80036;stroke-width:1.0;"/><polygon fill="#A80036" points="392.33,400.43,393.9672,390.7182,391.0871,395.5869,386.2183,392.7068,392.33,400.43" style="stroke:#A80036;stroke-width:1.0;"/><text fill="#000000" font-family="sans-serif" font-size="13" lengthAdjust="spacing" textLength="58" x="377" y="322.0669">RO-Crate</text><text fill="#000000" font-family="sans-serif" font-size="13" lengthAdjust="spacing" textLength="54" x="379" y="337.1997">JSON-LD</text><!--MD5=[59b86e5021fe78dd099bfb8f39500af3]
link edaphobaseOriginalDb to edaphobaseDumpedDb--><path d="M305.23,87.82 C294.54,122.3 273.76,189.3 262.22,226.5 " fill="none" id="edaphobaseOriginalDb-to-edaphobaseDumpedDb" style="stroke:#A80036;stroke-width:1.0;"/><polygon fill="#A80036" points="260.72,231.32,267.1883,223.893,262.1894,226.5408,259.5416,221.5419,260.72,231.32" style="stroke:#A80036;stroke-width:1.0;"/><text fill="#000000" font-family="sans-serif" font-size="13" lengthAdjust="spacing" textLength="67" x="295" y="133.0669">SQL dump</text><!--MD5=[dac460bf6fa8181ac30454ddb507a32d]
link inspire to bonaresDb--><path d="M787.41,586.5 C797.27,586.5 807.13,586.5 817,586.5 " fill="none" id="inspire-to-bonaresDb" style="stroke:#A80036;stroke-width:1.0;"/><polygon fill="#A80036" points="822.15,586.5,813.15,582.5,817.15,586.5,813.15,590.5,822.15,586.5" style="stroke:#A80036;stroke-width:1.0;"/><!--MD5=[c5fd832a0a09f365f72009f3ca7245b6]
link web to edaldDb--><path d="M833.24,423.5 C843.13,423.5 853.03,423.5 862.92,423.5 " fill="none" id="web-to-edaldDb" style="stroke:#A80036;stroke-width:1.0;"/><polygon fill="#A80036" points="868.09,423.5,859.09,419.5,863.09,423.5,859.09,427.5,868.09,423.5" style="stroke:#A80036;stroke-width:1.0;"/><!--MD5=[234a1b23aa8067ed1e67e9e3f8cb032f]
link harvester to api--><path d="M522.81,423.5 C494.09,423.5 459.41,423.5 433.9,423.5 " fill="none" id="harvester-to-api" style="stroke:#A80036;stroke-width:1.0;"/><polygon fill="#A80036" points="428.6,423.5,437.6,427.5,433.6,423.5,437.6,419.5,428.6,423.5" style="stroke:#A80036;stroke-width:1.0;"/><text fill="#000000" font-family="sans-serif" font-size="13" lengthAdjust="spacing" textLength="58" x="446.75" y="401.5669">RO-Crate</text><text fill="#000000" font-family="sans-serif" font-size="13" lengthAdjust="spacing" textLength="54" x="448.75" y="416.6997">JSON-LD</text><!--MD5=[f5ba6ac5801b93425a31b452ab4c46f0]
link harvester to inspire--><path d="M597.91,446.55 C624.72,473.53 670.42,519.51 701.85,551.14 " fill="none" id="harvester-to-inspire" style="stroke:#A80036;stroke-width:1.0;"/><polygon fill="#A80036" points="705.62,554.93,702.1217,545.7234,702.0988,551.3802,696.442,551.3573,705.62,554.93" style="stroke:#A80036;stroke-width:1.0;"/><text fill="#000000" font-family="sans-serif" font-size="13" lengthAdjust="spacing" textLength="29" x="652" y="500.0669">CSW</text><!--MD5=[2c75c43a38406012fdfecdbf6ae394a8]
reverse link web to harvester--><path d="M695.81,442.54 C679.62,444.86 662.49,445.72 646.5,443.5 C640.83,442.71 634.97,441.58 629.17,440.26 " fill="none" id="web-backto-harvester" style="stroke:#A80036;stroke-width:1.0;"/><polygon fill="#A80036" points="700.8,441.78,691.2981,439.1888,695.8576,442.5371,692.5094,447.0966,700.8,441.78" style="stroke:#A80036;stroke-width:1.0;"/><text fill="#000000" font-family="sans-serif" font-size="13" lengthAdjust="spacing" textLength="35" x="647.5" y="439.5669">HTML</text><!--MD5=[2b65047c537b6c037ab2e6597c0fc597]
link searchhub to datahub--><path d="M95.64,609.86 C113.55,629.14 140.24,657.64 164,682 C172.31,690.52 181.5,699.7 189.81,707.92 " fill="none" id="searchhub-to-datahub" style="stroke:#A80036;stroke-width:1.0;"/><polygon fill="#A80036" points="193.82,711.87,190.2288,702.6992,190.2631,708.356,184.6064,708.3902,193.82,711.87" style="stroke:#A80036;stroke-width:1.0;"/><text fill="#000000" font-family="sans-serif" font-size="13" lengthAdjust="spacing" textLength="33" x="172" y="663.0669">to be</text><text fill="#000000" font-family="sans-serif" font-size="13" lengthAdjust="spacing" textLength="47" x="165" y="678.1997">defined</text><!--MD5=[c1c88fd8b0630037defb682ef1e7c5f5]
reverse link datahub to sciwin--><path d="M216,762.6 C216,788.42 216,826.82 216,850.86 " fill="none" id="datahub-backto-sciwin" style="stroke:#A80036;stroke-width:1.0;"/><polygon fill="#A80036" points="216,757.29,212,766.29,216,762.29,220,766.29,216,757.29" style="stroke:#A80036;stroke-width:1.0;"/><text fill="#000000" font-family="sans-serif" font-size="13" lengthAdjust="spacing" textLength="33" x="224" y="802.0669">to be</text><text fill="#000000" font-family="sans-serif" font-size="13" lengthAdjust="spacing" textLength="47" x="217" y="817.1997">defined</text><!--MD5=[650766fe03285a6bd6623d14dd59ec6d]
@startuml MiddlewareArchitecture
skinparam packageStyle rectangle
skinparam rectangle<<dashedRect>> {
    BorderStyle dashed
}
skinparam node<<internal>> {
    BackgroundColor LightSkyBlue
    BorderColor DarkBlue
    FontColor Black
}
skinparam node<<internal-dashed>> {
    BackgroundColor LightSkyBlue
    BorderColor DarkBlue
    FontColor Black
    BorderStyle dashed
}
skinparam node<<external>> {
    BackgroundColor White
    BorderColor Gray
    FontColor Black
}
hide stereotype

package "Edaphobase" as edaphobaseOriginal {
    database "DB" as edaphobaseOriginalDb
    node "sql2arc" as sql2arcOriginal <<internal-dashed>>
}

package "Bonares" {
    database "DB" as bonaresDb
    node "INSPIRE\nendpoint" as inspire <<external>>
}

package "e!DAL" {
    database "DB" as edaldDb
    node "Web site with\nschema.org" as web <<external>>
}

package "Middleware" {
    rectangle "Edaphobase Mirror" as edaphobaseDumped <<dashedRect>> {
        database "DB" as edaphobaseDumpedDb
        node "sql2arc" as sql2arcDumped <<internal>>
    }

    queue "RabbitMQ" as rabbitmq
    node "API" as api <<internal>>
    database "CouchDB" as couchdb
    node "Background\nWorker" as worker <<internal>>
    database "DataHUB" as datahub
    node "Harvester" as harvester <<internal>>
}

node "SearchHUB" as searchhub <<external>>
node "SciWIn" as sciwin <<external>>

api -right-> couchdb : JSON
api -right-> rabbitmq : publish task
rabbitmq - -> worker : consume task
worker - -> couchdb : JSON
worker - -> datahub : git sync
sql2arcOriginal -left-> edaphobaseOriginalDb
sql2arcOriginal - -> api : RO-Crate\nJSON-LD
sql2arcDumped -left-> edaphobaseDumpedDb
sql2arcDumped - -> api : RO-Crate\nJSON-LD
edaphobaseOriginalDb - -> edaphobaseDumpedDb : SQL dump
inspire -right-> bonaresDb
web -right-> edaldDb
harvester -right-> api : RO-Crate\nJSON-LD
harvester - -> inspire : CSW
harvester -left-> web : HTML
searchhub - -> datahub : to be\ndefined
sciwin -up-> datahub : to be\ndefined

@enduml

PlantUML version 1.2021.00(Sun Jan 10 10:25:05 UTC 2021)
(MIT source distribution)
Java Runtime: OpenJDK Runtime Environment
JVM: OpenJDK 64-Bit Server VM
Default Encoding: UTF-8
Language: en
Country: US
--></g></svg>
