<?xml version="1.0" encoding="UTF-8" standalone="no"?><svg xmlns="http://www.w3.org/2000/svg" xmlns:xlink="http://www.w3.org/1999/xlink" contentScriptType="application/ecmascript" contentStyleType="text/css" height="670px" preserveAspectRatio="none" style="width:645px;height:670px;" version="1.1" viewBox="0 0 645 670" width="645px" zoomAndPan="magnify"><defs><filter height="300%" id="f1h8v18d451ovg" width="300%" x="-1" y="-1"><feGaussianBlur result="blurOut" stdDeviation="2.0"/><feColorMatrix in="blurOut" result="blurOut2" type="matrix" values="0 0 0 0 0 0 0 0 0 0 0 0 0 0 0 0 0 0 .4 0"/><feOffset dx="4.0" dy="4.0" in="blurOut2" result="blurOut3"/><feBlend in="SourceGraphic" in2="blurOut3" mode="normal"/></filter></defs><g><text fill="#000000" font-family="sans-serif" font-size="18" lengthAdjust="spacing" textLength="231" x="206" y="26.708">Middleware API Workflow</text><ellipse cx="318.5" cy="40.9531" fill="#000000" filter="url(#f1h8v18d451ovg)" rx="10" ry="10" style="stroke:none;stroke-width:1.0;"/><rect fill="#FEFECE" filter="url(#f1h8v18d451ovg)" height="33.9688" rx="12.5" ry="12.5" style="stroke:#A80036;stroke-width:1.5;" width="150" x="243.5" y="70.9531"/><text fill="#000000" font-family="sans-serif" font-size="12" lengthAdjust="spacing" textLength="130" x="253.5" y="92.0918">HTTP request arrives</text><rect fill="#FEFECE" filter="url(#f1h8v18d451ovg)" height="33.9688" rx="12.5" ry="12.5" style="stroke:#A80036;stroke-width:1.5;" width="343" x="147" y="124.9219"/><text fill="#000000" font-family="sans-serif" font-size="12" lengthAdjust="spacing" textLength="323" x="157" y="146.0605">Validate RDI authorization via mTLS client certificate</text><polygon fill="#FEFECE" filter="url(#f1h8v18d451ovg)" points="274.5,178.8906,362.5,178.8906,374.5,190.8906,362.5,202.8906,274.5,202.8906,262.5,190.8906,274.5,178.8906" style="stroke:#A80036;stroke-width:1.5;"/><text fill="#000000" font-family="sans-serif" font-size="11" lengthAdjust="spacing" textLength="88" x="274.5" y="194.6987">REST Endpoint?</text><rect fill="#FEFECE" filter="url(#f1h8v18d451ovg)" height="33.9688" rx="12.5" ry="12.5" style="stroke:#A80036;stroke-width:1.5;" width="233" x="27" y="225.6953"/><text fill="#000000" font-family="sans-serif" font-size="12" lengthAdjust="spacing" textLength="213" x="37" y="246.834">Create Harvest Object in CouchDB</text><ellipse cx="143.5" cy="290.6641" fill="#FFFFFF" filter="url(#f1h8v18d451ovg)" rx="11" ry="11" style="stroke:#000000;stroke-width:1.0;"/><ellipse cx="143.5" cy="290.6641" fill="#000000" rx="6" ry="6" style="stroke:#7F7F7F;stroke-width:1.0;"/><rect fill="#FEFECE" filter="url(#f1h8v18d451ovg)" height="33.9688" rx="12.5" ry="12.5" style="stroke:#A80036;stroke-width:1.5;" width="280" x="330" y="225.6953"/><text fill="#000000" font-family="sans-serif" font-size="12" lengthAdjust="spacing" textLength="260" x="340" y="246.834">Validate harvest object exists in CouchDB</text><rect fill="#FEFECE" filter="url(#f1h8v18d451ovg)" height="33.9688" rx="12.5" ry="12.5" style="stroke:#A80036;stroke-width:1.5;" width="190" x="375" y="279.6641"/><text fill="#000000" font-family="sans-serif" font-size="12" lengthAdjust="spacing" textLength="170" x="385" y="300.8027">Validate harvest ownership</text><polygon fill="#FEFECE" filter="url(#f1h8v18d451ovg)" points="318.5,333.6328,318.5,333.6328,330.5,345.6328,318.5,357.6328,318.5,357.6328,306.5,345.6328,318.5,333.6328" style="stroke:#A80036;stroke-width:1.5;"/><rect fill="#FEFECE" filter="url(#f1h8v18d451ovg)" height="33.9688" rx="12.5" ry="12.5" style="stroke:#A80036;stroke-width:1.5;" width="225" x="206" y="377.6328"/><text fill="#000000" font-family="sans-serif" font-size="12" lengthAdjust="spacing" textLength="205" x="216" y="398.7715">Validate ARC identifier is present</text><rect fill="#FEFECE" filter="url(#f1h8v18d451ovg)" height="33.9688" rx="12.5" ry="12.5" style="stroke:#A80036;stroke-width:1.5;" width="615" x="11" y="431.6016"/><text fill="#000000" font-family="sans-serif" font-size="12" lengthAdjust="spacing" textLength="595" x="21" y="452.7402">Persist ARC and harvest-related metadata in CouchDB, using the ARC identifier as document ID</text><rect fill="#FEFECE" filter="url(#f1h8v18d451ovg)" height="33.9688" rx="12.5" ry="12.5" style="stroke:#A80036;stroke-width:1.5;" width="312" x="162.5" y="533.9727"/><text fill="#000000" font-family="sans-serif" font-size="12" lengthAdjust="spacing" textLength="292" x="172.5" y="555.1113">Add ArcSyncTask to background worker queue</text><polygon fill="#FEFECE" filter="url(#f1h8v18d451ovg)" points="233.5,485.5703,403.5,485.5703,415.5,497.5703,403.5,509.5703,233.5,509.5703,221.5,497.5703,233.5,485.5703" style="stroke:#A80036;stroke-width:1.5;"/><text fill="#000000" font-family="sans-serif" font-size="11" lengthAdjust="spacing" textLength="20" x="322.5" y="519.7808">yes</text><text fill="#000000" font-family="sans-serif" font-size="11" lengthAdjust="spacing" textLength="170" x="233.5" y="501.3784">Document is new or updated?</text><polygon fill="#FEFECE" filter="url(#f1h8v18d451ovg)" points="318.5,587.9414,330.5,599.9414,318.5,611.9414,306.5,599.9414,318.5,587.9414" style="stroke:#A80036;stroke-width:1.5;"/><ellipse cx="318.5" cy="642.9414" fill="#FFFFFF" filter="url(#f1h8v18d451ovg)" rx="11" ry="11" style="stroke:#000000;stroke-width:1.0;"/><ellipse cx="318.5" cy="642.9414" fill="#000000" rx="6" ry="6" style="stroke:#7F7F7F;stroke-width:1.0;"/><line style="stroke:#A80036;stroke-width:1.5;" x1="318.5" x2="318.5" y1="50.9531" y2="70.9531"/><polygon fill="#A80036" points="314.5,60.9531,318.5,70.9531,322.5,60.9531,318.5,64.9531" style="stroke:#A80036;stroke-width:1.0;"/><line style="stroke:#A80036;stroke-width:1.5;" x1="318.5" x2="318.5" y1="104.9219" y2="124.9219"/><polygon fill="#A80036" points="314.5,114.9219,318.5,124.9219,322.5,114.9219,318.5,118.9219" style="stroke:#A80036;stroke-width:1.0;"/><line style="stroke:#A80036;stroke-width:1.5;" x1="143.5" x2="143.5" y1="259.6641" y2="279.6641"/><polygon fill="#A80036" points="139.5,269.6641,143.5,279.6641,147.5,269.6641,143.5,273.6641" style="stroke:#A80036;stroke-width:1.0;"/><line style="stroke:#A80036;stroke-width:1.5;" x1="470" x2="470" y1="259.6641" y2="279.6641"/><polygon fill="#A80036" points="466,269.6641,470,279.6641,474,269.6641,470,273.6641" style="stroke:#A80036;stroke-width:1.0;"/><line style="stroke:#A80036;stroke-width:1.5;" x1="262.5" x2="143.5" y1="190.8906" y2="190.8906"/><line style="stroke:#A80036;stroke-width:1.5;" x1="143.5" x2="143.5" y1="190.8906" y2="225.6953"/><polygon fill="#A80036" points="139.5,215.6953,143.5,225.6953,147.5,215.6953,143.5,219.6953" style="stroke:#A80036;stroke-width:1.0;"/><text fill="#000000" font-family="sans-serif" font-size="11" lengthAdjust="spacing" textLength="106" x="143.5" y="212.1011">/v3/harvests POST</text><line style="stroke:#A80036;stroke-width:1.5;" x1="374.5" x2="470" y1="190.8906" y2="190.8906"/><line style="stroke:#A80036;stroke-width:1.5;" x1="470" x2="470" y1="190.8906" y2="225.6953"/><polygon fill="#A80036" points="466,215.6953,470,225.6953,474,215.6953,470,219.6953" style="stroke:#A80036;stroke-width:1.0;"/><text fill="#000000" font-family="sans-serif" font-size="11" lengthAdjust="spacing" textLength="163" x="470" y="212.1011">/v3/harvests/{id}/arcs POST</text><line style="stroke:#A80036;stroke-width:1.5;" x1="470" x2="470" y1="313.6328" y2="345.6328"/><line style="stroke:#A80036;stroke-width:1.5;" x1="470" x2="330.5" y1="345.6328" y2="345.6328"/><polygon fill="#A80036" points="340.5,341.6328,330.5,345.6328,340.5,349.6328,336.5,345.6328" style="stroke:#A80036;stroke-width:1.0;"/><line style="stroke:#A80036;stroke-width:1.5;" x1="318.5" x2="318.5" y1="202.8906" y2="333.6328"/><polygon fill="#A80036" points="314.5,323.6328,318.5,333.6328,322.5,323.6328,318.5,327.6328" style="stroke:#A80036;stroke-width:1.0;"/><line style="stroke:#A80036;stroke-width:1.5;" x1="318.5" x2="318.5" y1="158.8906" y2="178.8906"/><polygon fill="#A80036" points="314.5,168.8906,318.5,178.8906,322.5,168.8906,318.5,172.8906" style="stroke:#A80036;stroke-width:1.0;"/><line style="stroke:#A80036;stroke-width:1.5;" x1="318.5" x2="318.5" y1="357.6328" y2="377.6328"/><polygon fill="#A80036" points="314.5,367.6328,318.5,377.6328,322.5,367.6328,318.5,371.6328" style="stroke:#A80036;stroke-width:1.0;"/><line style="stroke:#A80036;stroke-width:1.5;" x1="318.5" x2="318.5" y1="411.6016" y2="431.6016"/><polygon fill="#A80036" points="314.5,421.6016,318.5,431.6016,322.5,421.6016,318.5,425.6016" style="stroke:#A80036;stroke-width:1.0;"/><line style="stroke:#A80036;stroke-width:1.5;" x1="318.5" x2="318.5" y1="509.5703" y2="533.9727"/><polygon fill="#A80036" points="314.5,523.9727,318.5,533.9727,322.5,523.9727,318.5,527.9727" style="stroke:#A80036;stroke-width:1.0;"/><line style="stroke:#A80036;stroke-width:1.5;" x1="415.5" x2="484.5" y1="497.5703" y2="497.5703"/><polygon fill="#A80036" points="480.5,540.957,484.5,550.957,488.5,540.957,484.5,544.957" style="stroke:#A80036;stroke-width:1.5;"/><line style="stroke:#A80036;stroke-width:1.5;" x1="484.5" x2="484.5" y1="497.5703" y2="599.9414"/><line style="stroke:#A80036;stroke-width:1.5;" x1="484.5" x2="330.5" y1="599.9414" y2="599.9414"/><polygon fill="#A80036" points="340.5,595.9414,330.5,599.9414,340.5,603.9414,336.5,599.9414" style="stroke:#A80036;stroke-width:1.0;"/><line style="stroke:#A80036;stroke-width:1.5;" x1="318.5" x2="318.5" y1="567.9414" y2="587.9414"/><polygon fill="#A80036" points="314.5,577.9414,318.5,587.9414,322.5,577.9414,318.5,581.9414" style="stroke:#A80036;stroke-width:1.0;"/><line style="stroke:#A80036;stroke-width:1.5;" x1="318.5" x2="318.5" y1="465.5703" y2="485.5703"/><polygon fill="#A80036" points="314.5,475.5703,318.5,485.5703,322.5,475.5703,318.5,479.5703" style="stroke:#A80036;stroke-width:1.0;"/><line style="stroke:#A80036;stroke-width:1.5;" x1="318.5" x2="318.5" y1="611.9414" y2="631.9414"/><polygon fill="#A80036" points="314.5,621.9414,318.5,631.9414,322.5,621.9414,318.5,625.9414" style="stroke:#A80036;stroke-width:1.0;"/><!--MD5=[37011e1f12437e118e32efc833d6c4ba]
@startuml API_Workflow
title Middleware API Workflow

start
:HTTP request arrives;
:Validate RDI authorization via mTLS client certificate;

switch (REST Endpoint?)
case (/v3/harvests POST)
  :Create Harvest Object in CouchDB;
  stop
case(/v3/arcs POST)
case(/v3/harvests/{id}/arcs POST)
  :Validate harvest object exists in CouchDB;
  :Validate harvest ownership;
endswitch

:Validate ARC identifier is present;
:Persist ARC and harvest-related metadata in CouchDB, using the ARC identifier as document ID;

if (Document is new or updated?) then (yes)
  :Add ArcSyncTask to background worker queue;
endif

stop

@enduml

PlantUML version 1.2021.00(Sun Jan 10 10:25:05 UTC 2021)
(MIT source distribution)
Java Runtime: OpenJDK Runtime Environment
JVM: OpenJDK 64-Bit Server VM
Default Encoding: UTF-8
Language: en
Country: US
--></g></svg>
