<?xml version="1.0" encoding="UTF-8" standalone="no"?><svg xmlns="http://www.w3.org/2000/svg" xmlns:xlink="http://www.w3.org/1999/xlink" contentScriptType="application/ecmascript" contentStyleType="text/css" height="487px" preserveAspectRatio="none" style="width:434px;height:487px;" version="1.1" viewBox="0 0 434 487" width="434px" zoomAndPan="magnify"><defs><filter height="300%" id="fjzp2hcfrdsml" width="300%" x="-1" y="-1"><feGaussianBlur result="blurOut" stdDeviation="2.0"/><feColorMatrix in="blurOut" result="blurOut2" type="matrix" values="0 0 0 0 0 0 0 0 0 0 0 0 0 0 0 0 0 0 .4 0"/><feOffset dx="4.0" dy="4.0" in="blurOut2" result="blurOut3"/><feBlend in="SourceGraphic" in2="blurOut3" mode="normal"/></filter></defs><g><text fill="#000000" font-family="sans-serif" font-size="18" lengthAdjust="spacing" textLength="410" x="12" y="26.708">Celery Worker Workflow for ARC GitLab Sync</text><ellipse cx="215" cy="40.9531" fill="#000000" filter="url(#fjzp2hcfrdsml)" rx="10" ry="10" style="stroke:none;stroke-width:1.0;"/><rect fill="#FEFECE" filter="url(#fjzp2hcfrdsml)" height="33.9688" rx="12.5" ry="12.5" style="stroke:#A80036;stroke-width:1.5;" width="199" x="115.5" y="70.9531"/><text fill="#000000" font-family="sans-serif" font-size="12" lengthAdjust="spacing" textLength="179" x="125.5" y="92.0918">Celery worker process starts</text><rect fill="#FEFECE" filter="url(#fjzp2hcfrdsml)" height="33.9688" rx="12.5" ry="12.5" style="stroke:#A80036;stroke-width:1.5;" width="228" x="101" y="124.9219"/><text fill="#000000" font-family="sans-serif" font-size="12" lengthAdjust="spacing" textLength="208" x="111" y="146.0605">Receive task via RabbitMQ broker</text><rect fill="#FEFECE" filter="url(#fjzp2hcfrdsml)" height="33.9688" rx="12.5" ry="12.5" style="stroke:#A80036;stroke-width:1.5;" width="274" x="78" y="178.8906"/><text fill="#000000" font-family="sans-serif" font-size="12" lengthAdjust="spacing" textLength="254" x="88" y="200.0293">Retrieve RO-Crate JSON-LD from CouchDB</text><rect fill="#FEFECE" filter="url(#fjzp2hcfrdsml)" height="33.9688" rx="12.5" ry="12.5" style="stroke:#A80036;stroke-width:1.5;" width="272" x="79" y="232.8594"/><text fill="#000000" font-family="sans-serif" font-size="12" lengthAdjust="spacing" textLength="252" x="89" y="253.998">Parse ARC from JSON-LD via ARCtrl library</text><rect fill="#FEFECE" filter="url(#fjzp2hcfrdsml)" height="33.9688" rx="12.5" ry="12.5" style="stroke:#A80036;stroke-width:1.5;" width="277" x="76.5" y="286.8281"/><text fill="#000000" font-family="sans-serif" font-size="12" lengthAdjust="spacing" textLength="257" x="86.5" y="307.9668">Write ARC scaffold to temporary directory</text><rect fill="#FEFECE" filter="url(#fjzp2hcfrdsml)" height="33.9688" rx="12.5" ry="12.5" style="stroke:#A80036;stroke-width:1.5;" width="252" x="89" y="340.7969"/><text fill="#000000" font-family="sans-serif" font-size="12" lengthAdjust="spacing" textLength="232" x="99" y="361.9355">Synchronize ARC scaffold to DataHUB</text><rect fill="#FEFECE" filter="url(#fjzp2hcfrdsml)" height="33.9688" rx="12.5" ry="12.5" style="stroke:#A80036;stroke-width:1.5;" width="206" x="112" y="394.7656"/><text fill="#000000" font-family="sans-serif" font-size="12" lengthAdjust="spacing" textLength="186" x="122" y="415.9043">Update metadata in CouchDB</text><ellipse cx="215" cy="459.7344" fill="#FFFFFF" filter="url(#fjzp2hcfrdsml)" rx="11" ry="11" style="stroke:#000000;stroke-width:1.0;"/><ellipse cx="215" cy="459.7344" fill="#000000" rx="6" ry="6" style="stroke:#7F7F7F;stroke-width:1.0;"/><line style="stroke:#A80036;stroke-width:1.5;" x1="215" x2="215" y1="50.9531" y2="70.9531"/><polygon fill="#A80036" points="211,60.9531,215,70.9531,219,60.9531,215,64.9531" style="stroke:#A80036;stroke-width:1.0;"/><line style="stroke:#A80036;stroke-width:1.5;" x1="215" x2="215" y1="104.9219" y2="124.9219"/><polygon fill="#A80036" points="211,114.9219,215,124.9219,219,114.9219,215,118.9219" style="stroke:#A80036;stroke-width:1.0;"/><line style="stroke:#A80036;stroke-width:1.5;" x1="215" x2="215" y1="158.8906" y2="178.8906"/><polygon fill="#A80036" points="211,168.8906,215,178.8906,219,168.8906,215,172.8906" style="stroke:#A80036;stroke-width:1.0;"/><line style="stroke:#A80036;stroke-width:1.5;" x1="215" x2="215" y1="212.8594" y2="232.8594"/><polygon fill="#A80036" points="211,222.8594,215,232.8594,219,222.8594,215,226.8594" style="stroke:#A80036;stroke-width:1.0;"/><line style="stroke:#A80036;stroke-width:1.5;" x1="215" x2="215" y1="266.8281" y2="286.8281"/><polygon fill="#A80036" points="211,276.8281,215,286.8281,219,276.8281,215,280.8281" style="stroke:#A80036;stroke-width:1.0;"/><line style="stroke:#A80036;stroke-width:1.5;" x1="215" x2="215" y1="320.7969" y2="340.7969"/><polygon fill="#A80036" points="211,330.7969,215,340.7969,219,330.7969,215,334.7969" style="stroke:#A80036;stroke-width:1.0;"/><line style="stroke:#A80036;stroke-width:1.5;" x1="215" x2="215" y1="374.7656" y2="394.7656"/><polygon fill="#A80036" points="211,384.7656,215,394.7656,219,384.7656,215,388.7656" style="stroke:#A80036;stroke-width:1.0;"/><line style="stroke:#A80036;stroke-width:1.5;" x1="215" x2="215" y1="428.7344" y2="448.7344"/><polygon fill="#A80036" points="211,438.7344,215,448.7344,219,438.7344,215,442.7344" style="stroke:#A80036;stroke-width:1.0;"/><!--MD5=[510db0fa7cfb6476678812c713996789]
@startuml Celery_Worker_Workflow
title Celery Worker Workflow for ARC GitLab Sync

start
:Celery worker process starts;

:Receive task via RabbitMQ broker;
:Retrieve RO-Crate JSON-LD from CouchDB;
:Parse ARC from JSON-LD via ARCtrl library;
:Write ARC scaffold to temporary directory;
:Synchronize ARC scaffold to DataHUB;
:Update metadata in CouchDB;

stop

@enduml

PlantUML version 1.2021.00(Sun Jan 10 10:25:05 UTC 2021)
(MIT source distribution)
Java Runtime: OpenJDK Runtime Environment
JVM: OpenJDK 64-Bit Server VM
Default Encoding: UTF-8
Language: en
Country: US
--></g></svg>
